<mxfile host="65bd71144e">
    <diagram id="Liy3fpN2YHDbPtslygcD" name="Page-1">
        <mxGraphModel dx="1092" dy="787" grid="1" gridSize="10" guides="1" tooltips="1" connect="1" arrows="1" fold="1" page="1" pageScale="1" pageWidth="850" pageHeight="1100" math="0" shadow="0">
            <root>
                <mxCell id="0"/>
                <mxCell id="1" parent="0"/>
                <mxCell id="2" value="&lt;b&gt;&lt;font style=&quot;font-size: 14px;&quot;&gt;LicenÃ§a&lt;/font&gt;&lt;/b&gt;&lt;div&gt;&lt;font color=&quot;#000000&quot;&gt;&lt;br&gt;&lt;/font&gt;&lt;/div&gt;&lt;div&gt;&lt;li style=&quot;text-align: justify;&quot; data-end=&quot;336&quot; data-start=&quot;325&quot;&gt;id: INT&lt;/li&gt;&lt;li style=&quot;text-align: justify;&quot; data-end=&quot;355&quot; data-start=&quot;337&quot;&gt;empresaId: INT&lt;/li&gt;&lt;li style=&quot;text-align: justify;&quot; data-end=&quot;374&quot; data-start=&quot;356&quot;&gt;numero: STRING&lt;/li&gt;&lt;li style=&quot;text-align: justify;&quot; data-end=&quot;401&quot; data-start=&quot;375&quot;&gt;orgaoAmbiental: STRING&lt;/li&gt;&lt;li style=&quot;text-align: justify;&quot; data-end=&quot;423&quot; data-start=&quot;402&quot;&gt;dataEmissao: DATE&lt;/li&gt;&lt;li style=&quot;text-align: justify;&quot; data-end=&quot;446&quot; data-start=&quot;424&quot;&gt;dataValidade: DATE&lt;/li&gt;&lt;div&gt;&lt;br&gt;&lt;/div&gt;&lt;div&gt;&lt;b&gt;&lt;span style=&quot;background-color: transparent;&quot;&gt;+ criarLicenca()&lt;/span&gt;&lt;br&gt;&lt;span style=&quot;background-color: transparent;&quot;&gt;+ listarLicencas()&lt;/span&gt;&lt;br&gt;&lt;span style=&quot;background-color: transparent;&quot;&gt;+ editarLicenca()&lt;/span&gt;&lt;br&gt;&lt;span style=&quot;background-color: transparent;&quot;&gt;+ excluirLicenca()&lt;/span&gt;&lt;/b&gt;&lt;/div&gt;&lt;/div&gt;" style="rounded=0;whiteSpace=wrap;html=1;fillColor=#dae8fc;strokeColor=#6c8ebf;" parent="1" vertex="1">
                    <mxGeometry x="450" y="311.25" width="180" height="257.5" as="geometry"/>
                </mxCell>
                <mxCell id="4" style="edgeStyle=none;html=1;exitX=1;exitY=0.5;exitDx=0;exitDy=0;entryX=0;entryY=0.5;entryDx=0;entryDy=0;" parent="1" source="3" target="2" edge="1">
                    <mxGeometry relative="1" as="geometry"/>
                </mxCell>
                <mxCell id="5" value="(1:N)" style="edgeLabel;html=1;align=center;verticalAlign=middle;resizable=0;points=[];" parent="4" vertex="1" connectable="0">
                    <mxGeometry x="-0.0875" y="1" relative="1" as="geometry">
                        <mxPoint as="offset"/>
                    </mxGeometry>
                </mxCell>
                <mxCell id="3" value="&lt;h3 data-end=&quot;17&quot; data-start=&quot;0&quot;&gt;&lt;strong data-end=&quot;15&quot; data-start=&quot;4&quot;&gt;Empresa&lt;/strong&gt;&lt;/h3&gt;&lt;ul data-end=&quot;281&quot; data-start=&quot;201&quot;&gt;&lt;br&gt;&lt;li style=&quot;text-align: left;&quot; data-end=&quot;46&quot; data-start=&quot;35&quot;&gt;id: INT&lt;/li&gt;&lt;li style=&quot;text-align: left;&quot; data-end=&quot;70&quot; data-start=&quot;47&quot;&gt;razaoSocial: STRING&lt;/li&gt;&lt;li style=&quot;text-align: left;&quot; data-end=&quot;87&quot; data-start=&quot;71&quot;&gt;cnpj: STRING&lt;/li&gt;&lt;li style=&quot;text-align: left;&quot; data-end=&quot;103&quot; data-start=&quot;88&quot;&gt;cep: STRING&lt;/li&gt;&lt;li style=&quot;text-align: left;&quot; data-end=&quot;122&quot; data-start=&quot;104&quot;&gt;cidade: STRING&lt;/li&gt;&lt;li style=&quot;text-align: left;&quot; data-end=&quot;141&quot; data-start=&quot;123&quot;&gt;estado: STRING&lt;/li&gt;&lt;li style=&quot;text-align: left;&quot; data-end=&quot;160&quot; data-start=&quot;142&quot;&gt;bairro: STRING&lt;/li&gt;&lt;li style=&quot;text-align: left;&quot; data-end=&quot;184&quot; data-start=&quot;161&quot;&gt;complemento: STRING&lt;/li&gt;&lt;/ul&gt;&lt;div&gt;&lt;span style=&quot;background-color: transparent;&quot;&gt;&lt;br&gt;&lt;/span&gt;&lt;/div&gt;&lt;div&gt;&lt;span style=&quot;background-color: transparent;&quot;&gt;&lt;b&gt;+ criarEmpresa()&lt;/b&gt;&lt;/span&gt;&lt;/div&gt;&lt;b&gt;&lt;span style=&quot;background-color: transparent;&quot;&gt;+ listarEmpresas()&lt;br&gt;&lt;/span&gt;&lt;span style=&quot;background-color: transparent;&quot;&gt;+ editarEmpresa()&lt;br&gt;&lt;/span&gt;&lt;span style=&quot;background-color: transparent;&quot;&gt;+ excluirEmpresa()&lt;/span&gt;&lt;/b&gt;" style="rounded=0;whiteSpace=wrap;html=1;fillColor=#dae8fc;strokeColor=#6c8ebf;" parent="1" vertex="1">
                    <mxGeometry x="120" y="280" width="185" height="320" as="geometry"/>
                </mxCell>
                <mxCell id="17" value="&lt;span style=&quot;color: rgb(0, 0, 0);&quot;&gt;Diagrama de Classes&lt;/span&gt;" style="rounded=1;whiteSpace=wrap;html=1;fillColor=#dae8fc;strokeColor=#6c8ebf;" parent="1" vertex="1">
                    <mxGeometry x="305" y="140" width="160" height="60" as="geometry"/>
                </mxCell>
            </root>
        </mxGraphModel>
    </diagram>
</mxfile>